<svg xmlns="http://www.w3.org/2000/svg" xmlns:xlink="http://www.w3.org/1999/xlink" version="1.1" x="0px" y="0px" viewBox="0 0 100 125" style="enable-background:new 0 0 100 100;" xml:space="preserve"><path d="M84.8,25.1l-9.9-9.9c-1.4-1.4-3.3-2.2-5.3-2.2c-2,0-3.9,0.8-5.3,2.2L21.2,58.3c-0.9,0.9-1.5,2-1.9,3.2l-6.1,20.9  c-0.4,1.2,0,2.5,0.9,3.5c0.7,0.7,1.6,1,2.5,1c0.3,0,0.7,0,1-0.1l20.9-6.1c1.2-0.4,2.3-1,3.2-1.9l43.1-43.1c1.4-1.4,2.2-3.3,2.2-5.3  C87,28.4,86.2,26.5,84.8,25.1z M24.9,67.3l7.8,7.8l-11,3.2L24.9,67.3z M79.8,30.8L73,37.6L62.4,27l6.8-6.8c0.1-0.1,0.3-0.1,0.4-0.1  c0.1,0,0.2,0,0.4,0.1l9.9,9.9c0.1,0.1,0.1,0.3,0.1,0.4S79.9,30.7,79.8,30.8z"/><text x="0" y="115" fill="#000000" font-size="5px" font-weight="bold" font-family="'Helvetica Neue', Helvetica, Arial-Unicode, Arial, Sans-serif">Created by Jivan</text><text x="0" y="120" fill="#000000" font-size="5px" font-weight="bold" font-family="'Helvetica Neue', Helvetica, Arial-Unicode, Arial, Sans-serif">from the Noun Project</text></svg>