<?xml version="1.0" encoding="UTF-8"?>
<svg width="51px" height="51px" viewBox="0 0 51 51" version="1.1" xmlns="http://www.w3.org/2000/svg" xmlns:xlink="http://www.w3.org/1999/xlink">
    <!-- Generator: Sketch 44.1 (41455) - http://www.bohemiancoding.com/sketch -->
    <title>pollicon 2</title>
    <desc>Created with Sketch.</desc>
    <defs></defs>
    <g id="Page-1" stroke="none" stroke-width="1" fill="none" fill-rule="evenodd">
        <g id="pollicon" fill-rule="nonzero" fill="#FFFFFF">
            <path d="M50,51 L1,51 C0.44771525,51 0,50.5522847 0,50 L0,1 C0,0.44771525 0.44771525,0 1,0 L3,0 C3.55228475,0 4,0.44771525 4,1 L4,47 L50,47 C50.5522847,47 51,47.4477153 51,48 L51,50 C51,50.5522847 50.5522847,51 50,51 Z M17,7 L11,7 C10.4477153,7 10,7.44771525 10,8 L10,42 C10,42.5522847 10.4477153,43 11,43 L17,43 C17.5522847,43 18,42.5522847 18,42 L18,8 C18,7.44771525 17.5522847,7 17,7 Z M31,25 L25,25 C24.4477153,25 24,25.4477153 24,26 L24,42 C24,42.5522847 24.4477153,43 25,43 L31,43 C31.5522847,43 32,42.5522847 32,42 L32,26 C32,25.4477153 31.5522847,25 31,25 Z M45,15 L39,15 C38.4477153,15 38,15.4477153 38,16 L38,42 C38,42.5522847 38.4477153,43 39,43 L45,43 C45.5522847,43 46,42.5522847 46,42 L46,16 C46,15.4477153 45.5522847,15 45,15 Z" id="Shape"></path>
        </g>
    </g>
</svg>