<svg xmlns="http://www.w3.org/2000/svg" data-name="Bar Chart" viewBox="0 0 51 63.75" x="0px" y="0px"><title>bar-chart</title><path d="M536.5,57.5h-49a1,1,0,0,1-1-1V7.5a1,1,0,0,1,1-1h2a1,1,0,0,1,1,1v46h46a1,1,0,0,1,1,1v2A1,1,0,0,1,536.5,57.5Zm-33-44h-6a1,1,0,0,0-1,1v34a1,1,0,0,0,1,1h6a1,1,0,0,0,1-1v-34A1,1,0,0,0,503.5,13.5Zm14,18h-6a1,1,0,0,0-1,1v16a1,1,0,0,0,1,1h6a1,1,0,0,0,1-1v-16A1,1,0,0,0,517.5,31.5Zm14-10h-6a1,1,0,0,0-1,1v26a1,1,0,0,0,1,1h6a1,1,0,0,0,1-1v-26A1,1,0,0,0,531.5,21.5Z" transform="translate(-486.5 -6.5)"/><text x="0" y="66" fill="#000000" font-size="5px" font-weight="bold" font-family="'Helvetica Neue', Helvetica, Arial-Unicode, Arial, Sans-serif">Created by Ismael Ruiz</text><text x="0" y="71" fill="#000000" font-size="5px" font-weight="bold" font-family="'Helvetica Neue', Helvetica, Arial-Unicode, Arial, Sans-serif">from the Noun Project</text></svg>